<svg width="1920" height="1080" viewBox="0 0 1920 1080" xmlns="http://www.w3.org/2000/svg"><rect width="1920" height="1080" fill="#4551f2"/><path d="M 0,1080 C 0,1080 0,180 0,180 C 126.09487179487178,189.04871794871795 252.18974358974356,198.0974358974359 355,185 C 457.81025641025644,171.9025641025641 537.3358974358974,136.65897435897435 648,125 C 758.6641025641026,113.34102564102565 900.4666666666667,125.26666666666668 1008,148 C 1115.5333333333333,170.73333333333332 1188.797435897436,204.274358974359 1286,209 C 1383.202564102564,213.725641025641 1504.3435897435895,189.63589743589742 1614,180 C 1723.6564102564105,170.36410256410258 1821.8282051282054,175.1820512820513 1920,180 C 1920,180 1920,1080 1920,1080 Z" fill="#3d1053" opacity="0.09999999999999999"/><path d="M 0,1080 C 0,1080 0,360 0,360 C 93.96410256410257,337.3051282051282 187.92820512820515,314.61025641025645 303,320 C 418.07179487179485,325.38974358974355 554.2512820512821,358.86410256410255 668,365 C 781.7487179487179,371.13589743589745 873.0666666666668,349.93333333333334 955,356 C 1036.9333333333332,362.06666666666666 1109.482051282051,395.4025641025641 1231,396 C 1352.517948717949,396.5974358974359 1523.0051282051284,364.45641025641027 1646,353 C 1768.9948717948716,341.54358974358973 1844.497435897436,350.7717948717949 1920,360 C 1920,360 1920,1080 1920,1080 Z" fill="#3d1053" opacity="0.19999999999999998"/><path d="M 0,1080 C 0,1080 0,540 0,540 C 84.94615384615386,537.3615384615384 169.89230769230772,534.723076923077 284,543 C 398.1076923076923,551.276923076923 541.376923076923,570.4692307692308 647,567 C 752.623076923077,563.5307692307692 820.6,537.4 910,525 C 999.4,512.6 1110.2230769230769,513.9307692307692 1237,529 C 1363.7769230769231,544.0692307692308 1506.5076923076922,572.876923076923 1623,577 C 1739.4923076923078,581.123076923077 1829.746153846154,560.5615384615385 1920,540 C 1920,540 1920,1080 1920,1080 Z" fill="#3d1053" opacity="0.3"/><path d="M 0,1080 C 0,1080 0,720 0,720 C 82.27692307692308,742.5487179487179 164.55384615384617,765.097435897436 268,753 C 371.44615384615383,740.902564102564 496.06153846153836,694.1589743589743 608,704 C 719.9384615384616,713.8410256410257 819.2000000000002,780.2666666666668 916,781 C 1012.7999999999998,781.7333333333332 1107.1384615384616,716.7743589743588 1226,688 C 1344.8615384615384,659.2256410256412 1488.246153846154,666.6358974358975 1608,678 C 1727.753846153846,689.3641025641025 1823.876923076923,704.6820512820512 1920,720 C 1920,720 1920,1080 1920,1080 Z" fill="#3d1053" opacity="0.39999999999999997"/><path d="M 0,1080 C 0,1080 0,900 0,900 C 75.56923076923081,859.7717948717949 151.13846153846163,819.5435897435898 265,835 C 378.8615384615384,850.4564102564102 531.0153846153845,921.597435897436 658,950 C 784.9846153846155,978.402564102564 886.8000000000002,964.0666666666666 995,960 C 1103.1999999999998,955.9333333333334 1217.7846153846153,962.1358974358975 1330,965 C 1442.2153846153847,967.8641025641025 1552.0615384615385,967.3897435897436 1650,956 C 1747.9384615384615,944.6102564102564 1833.9692307692308,922.3051282051282 1920,900 C 1920,900 1920,1080 1920,1080 Z" fill="#3d1053" opacity="0.49999999999999994"/></svg>